<svg width="61" height="10" viewBox="0 0 61 10" fill="none" xmlns="http://www.w3.org/2000/svg">
<path d="M0.958807 9V0.272727H6.37074V1.40625H2.27557V4.06534H5.98295V5.1946H2.27557V9H0.958807ZM7.63743 9H6.2397L9.38033 0.272727H10.9016L14.0423 9H12.6445L10.1772 1.85795H10.109L7.63743 9ZM7.8718 5.58239H12.4059V6.69034H7.8718V5.58239ZM15.3026 9V0.272727H18.4134C19.0895 0.272727 19.6506 0.389204 20.0966 0.622159C20.5455 0.855113 20.8807 1.17756 21.1023 1.58949C21.3239 1.99858 21.4347 2.47159 21.4347 3.00852C21.4347 3.54261 21.3224 4.01278 21.098 4.41903C20.8764 4.82244 20.5412 5.13636 20.0923 5.3608C19.6463 5.58523 19.0852 5.69744 18.4091 5.69744H16.0526V4.56392H18.2898C18.7159 4.56392 19.0625 4.50284 19.3295 4.38068C19.5994 4.25852 19.7969 4.08097 19.9219 3.84801C20.0469 3.61506 20.1094 3.33523 20.1094 3.00852C20.1094 2.67898 20.0455 2.39347 19.9176 2.15199C19.7926 1.91051 19.5952 1.72585 19.3253 1.59801C19.0582 1.46733 18.7074 1.40199 18.2727 1.40199H16.6193V9H15.3026ZM19.6108 5.0625L21.767 9H20.267L18.1534 5.0625H19.6108ZM23.0369 0.272727H24.6349L27.4134 7.05682H27.5156L30.294 0.272727H31.892V9H30.6392V2.68466H30.5582L27.9844 8.98722H26.9446L24.3707 2.6804H24.2898V9H23.0369V0.272727ZM34.5437 9H33.146L36.2866 0.272727H37.8079L40.9485 9H39.5508L37.0835 1.85795H37.0153L34.5437 9ZM34.7781 5.58239H39.3121V6.69034H34.7781V5.58239ZM49.0472 3.1108H47.7177C47.6665 2.8267 47.5714 2.5767 47.4322 2.3608C47.293 2.14489 47.1225 1.96165 46.9208 1.81108C46.7191 1.66051 46.4933 1.54687 46.2433 1.47017C45.9961 1.39347 45.7333 1.35511 45.4549 1.35511C44.9521 1.35511 44.5018 1.48153 44.104 1.73438C43.7092 1.98722 43.3967 2.35795 43.1665 2.84659C42.9393 3.33523 42.8256 3.93182 42.8256 4.63636C42.8256 5.34659 42.9393 5.94602 43.1665 6.43466C43.3967 6.9233 43.7106 7.29261 44.1083 7.54261C44.506 7.79261 44.9535 7.91761 45.4506 7.91761C45.7262 7.91761 45.9876 7.88068 46.2347 7.80682C46.4847 7.73011 46.7106 7.6179 46.9123 7.47017C47.114 7.32244 47.2844 7.14205 47.4237 6.92898C47.5657 6.71307 47.6637 6.46591 47.7177 6.1875L49.0472 6.19176C48.9762 6.62074 48.8384 7.01562 48.6339 7.37642C48.4322 7.73438 48.1722 8.04403 47.854 8.3054C47.5387 8.56392 47.1779 8.7642 46.7717 8.90625C46.3654 9.0483 45.9222 9.11932 45.4421 9.11932C44.6864 9.11932 44.0131 8.94034 43.4222 8.58239C42.8313 8.22159 42.3654 7.70597 42.0245 7.03551C41.6864 6.36506 41.5174 5.56534 41.5174 4.63636C41.5174 3.70455 41.6879 2.90483 42.0288 2.23722C42.3697 1.56676 42.8356 1.05256 43.4265 0.694602C44.0174 0.333807 44.6893 0.153409 45.4421 0.153409C45.9052 0.153409 46.337 0.22017 46.7376 0.353693C47.141 0.484375 47.5032 0.677557 47.8242 0.933239C48.1452 1.18608 48.4109 1.49574 48.6211 1.86222C48.8313 2.22585 48.9734 2.64205 49.0472 3.1108ZM51.9396 0.272727V9H50.6229V0.272727H51.9396ZM60.9013 0.272727V9H59.6911L55.255 2.59943H55.174V9H53.8572V0.272727H55.076L59.5163 6.68182H59.5973V0.272727H60.9013Z" fill="black"/>
</svg>
